<?xml version="1.0" encoding="utf-8"?>
<!-- Generator: Adobe Illustrator 24.0.0, SVG Export Plug-In . SVG Version: 6.00 Build 0)  -->
<svg version="1.1" id="Layer_1" xmlns="http://www.w3.org/2000/svg" xmlns:xlink="http://www.w3.org/1999/xlink" x="0px" y="0px"
	 viewBox="0 0 60 60" style="enable-background:new 0 0 60 60;" xml:space="preserve">
<style type="text/css">
	.st0{fill:#FFAA00;}
	.st1{fill:#206B00;}
</style>
<path class="st0" d="M37.18,16.88c0,0.42-0.15,0.78-0.45,1.07c-0.3,0.29-0.66,0.44-1.07,0.44s-0.76-0.15-1.05-0.44
	c-0.29-0.29-0.44-0.65-0.44-1.07c0-0.41,0.15-0.76,0.44-1.05c0.29-0.29,0.64-0.44,1.05-0.44s0.77,0.15,1.07,0.44
	C37.03,16.12,37.18,16.47,37.18,16.88z"/>
<path class="st0" d="M35.85,32.3c0,0.41-0.15,0.76-0.44,1.06c-0.3,0.3-0.65,0.44-1.06,0.44c-0.41,0-0.76-0.15-1.05-0.44
	s-0.44-0.65-0.44-1.06c0-0.42,0.15-0.78,0.44-1.07c0.29-0.29,0.64-0.44,1.05-0.44c0.41,0,0.76,0.15,1.06,0.44
	C35.71,31.52,35.85,31.88,35.85,32.3z"/>
<path class="st0" d="M11.04,43.06c0,0.41-0.15,0.76-0.44,1.06c-0.3,0.3-0.65,0.44-1.06,0.44c-0.41,0-0.76-0.15-1.05-0.44
	c-0.29-0.3-0.44-0.65-0.44-1.06c0-0.42,0.15-0.78,0.44-1.07c0.29-0.29,0.64-0.44,1.05-0.44c0.41,0,0.76,0.15,1.06,0.44
	C10.89,42.29,11.04,42.64,11.04,43.06z"/>
<path class="st0" d="M15.01,43.06c0,0.41-0.15,0.76-0.44,1.06c-0.3,0.3-0.65,0.44-1.06,0.44s-0.76-0.15-1.05-0.44
	c-0.29-0.3-0.44-0.65-0.44-1.06c0-0.42,0.15-0.78,0.44-1.07c0.29-0.29,0.64-0.44,1.05-0.44s0.76,0.15,1.06,0.44
	C14.86,42.29,15.01,42.64,15.01,43.06z"/>
<path class="st0" d="M47.8,29.71c-0.39,0.09-0.78,0.18-1.15,0.29c-3.13,0.9-5.88,2.63-8.24,5.2l-0.69-2.4
	c0.23-0.66,1.21-1.57,2.96-2.73c1.81-1.2,3.53-2.03,5.13-2.49c0.47-0.14,0.9-0.23,1.29-0.27L47.8,29.71z"/>
<path class="st1" d="M54.08,29.6v9.19c0,0.67-0.24,1.25-0.71,1.76c-0.47,0.5-1.06,0.75-1.74,0.75h-1.32c-0.23,0-0.45-0.02-0.67-0.05
	c-0.53-0.08-1-0.25-1.4-0.53c-0.22-0.15-0.58-0.5-1.07-1.03c-0.75,0.6-1.83,1.02-3.25,1.28h0c-0.35,0.06-0.72,0.12-1.11,0.16
	c-1.1,0.12-3.08,0.18-5.95,0.18c-1.4,0-2.39-0.43-2.98-1.29c-0.22,0.23-0.74,0.5-1.58,0.79c-0.92,0.33-1.7,0.5-2.32,0.5h-1.29
	c-0.7,0-1.28-0.25-1.76-0.75c-0.48-0.5-0.72-1.09-0.72-1.76v-1.36c0.78-0.47,1.52-0.98,2.23-1.55c0.08-0.07,0.17-0.13,0.25-0.2v1.81
	c0,0.39,0.13,0.71,0.39,0.95c0.26,0.24,0.56,0.36,0.9,0.36c0.66,0,1.39-0.22,2.19-0.64c0.49-0.27,1.09-0.67,1.78-1.21
	c0.56-0.43,0.88-0.64,0.97-0.64c0.37,0,0.57,0.22,0.6,0.64c0.07,0.78,0.11,1.18,0.12,1.21c0.16,0.43,0.57,0.64,1.22,0.64v0
	c3.07,0,5.31-0.08,6.73-0.23c0.91-0.1,1.47-0.23,1.7-0.39c-0.02-0.28-0.25-0.6-0.7-0.97c-0.18-0.15-0.4-0.3-0.63-0.44
	c-0.77-0.45-1.83-0.82-3.18-1.13l0.41-1.83l0.14-0.6c1.26,0.27,2.22,0.55,2.88,0.84c0.32,0.15,0.67,0.35,1.04,0.6
	c0.35,0.23,0.71,0.51,1.1,0.84c0.56,0.47,1.08,1.28,1.56,2.43c0.69,0.7,1.72,0.89,2.4,0.89v0c0.34,0,0.64-0.12,0.9-0.36
	c0.26-0.24,0.39-0.55,0.39-0.95V29.6H54.08z"/>
<path class="st1" d="M59.09,41.3h-2.5V29.6h2.5V41.3z"/>
<path class="st1" d="M38.87,22.84c0,0.82-0.27,1.53-0.81,2.13c-0.54,0.6-1.21,0.9-1.99,0.9H30.9c0.41,0.17,0.77,0.52,1.07,1.06
	c0.35,0.61,0.52,1.3,0.52,2.08c0,1.24-0.33,2.39-0.98,3.45c-0.59,0.96-1.53,1.97-2.83,3.03c-0.08,0.07-0.16,0.13-0.25,0.2
	c-0.71,0.57-1.46,1.09-2.23,1.55c-3.47,2.07-7.64,3.11-12.49,3.11c-2.5,0-4.89-0.28-7.15-0.83c-2.42-0.6-4.34-1.43-5.74-2.5v-2.5
	c1.27,0.94,3.12,1.73,5.54,2.36c2.46,0.65,4.91,0.98,7.35,0.98c4.88,0,9.04-1.14,12.49-3.41c0.8-0.53,1.56-1.12,2.29-1.77
	c0.07-0.06,0.13-0.12,0.19-0.18c1.02-0.97,1.52-1.95,1.52-2.95c0-1.04-0.52-1.91-1.56-2.62c-1.04-0.71-2.29-1.07-3.75-1.07
	l1.13-2.51h9.31c0.67,0,1.01-0.18,1.01-0.54c0-0.26-0.12-0.61-0.35-1.06l-1.09-2.15h2.84l0.82,1.84
	C38.77,21.91,38.87,22.37,38.87,22.84z"/>
<path class="st1" d="M26.21,29.23v5.05c0.8-0.53,1.56-1.12,2.29-1.77c0.07-0.06,0.13-0.12,0.19-0.18v-3.1H26.21z"/>
</svg>
